# xmcd
# 
# Track frame offsets:
#     150
#     6192
#     25154
#     54606
#     85802
#     103457
#     106379
#     127987
#     147830
#     174846
# 
# Disc length: 2721
# 
# Revision: 9
# Processed by: cddbd v1.5.2PL0 Copyright (c) Steve Scherf et al.
# Submitted via: fre:ac v1.1beta1pre3
# 
DISCID=7d0a9f0a
DTITLE=capsule - MORE! MORE! MORE!
DYEAR=2008
DGENRE=Electronic
TTITLE0=runway 
TTITLE1=more more more
TTITLE2=the Time is Now 
TTITLE3=JUMPER 
TTITLE4=Phantom
TTITLE5=gateway
TTITLE6=Pleasure ground
TTITLE7=the mutations of life 
TTITLE8=e.d.i.t.
TTITLE9=Adventure
EXTD=2008.11.19. YEAR: 2008
EXTT0=
EXTT1=
EXTT2=
EXTT3=
EXTT4=
EXTT5=
EXTT6=
EXTT7=
EXTT8=
EXTT9=
PLAYORDER=
